<?xml version="1.0" standalone="no"?><!DOCTYPE svg PUBLIC "-//W3C//DTD SVG 1.1//EN" "http://www.w3.org/Graphics/SVG/1.1/DTD/svg11.dtd"><svg t="1542518857772" class="icon" style="" viewBox="0 0 1024 1024" version="1.1" xmlns="http://www.w3.org/2000/svg" p-id="1153" xmlns:xlink="http://www.w3.org/1999/xlink" width="200" height="200"><defs><style type="text/css"></style></defs><path d="M509.943155 569.505715c138.155547 0 250.154363-113.76095 250.154363-254.085906S648.098701 61.344137 509.943155 61.344137s-250.154363 113.750717-250.154364 254.075672 111.998817 254.085906 250.154364 254.085906zM895.803269 880.025934l1.867534-0.711197c-61.149708-156.584268-211.697493-267.318278-387.728672-267.318279-173.845397 0-322.832639 108.001783-385.40679 261.507946l0.880043 0.361227a62.670342 62.670342 0 0 0-4.477988 23.310915c0 34.391275 27.581172 62.265112 61.600987 62.265113 25.762757 0 47.818075-15.988136 57.014528-38.679951l1.00284 0.412392c44.028772-106.83726 148.057057-181.918259 269.387404-181.918259 122.374118 0 227.139184 76.380598 270.501783 184.684256l0.438999-0.166799c9.869788 21.082154 31.099299 35.668361 55.703673 35.668361 34.023908 0 61.600987-27.874861 61.600986-62.265113a62.902632 62.902632 0 0 0-2.385327-17.150612z" fill="#bfbfbf" p-id="1154"></path></svg>
